<svg height="1294" width="720" xmlns="http://www.w3.org/2000/svg">
<rect height="1294" fill="#555" width="720"></rect>
<text fill="#7f7" font-family="Courier New" font-size="12" xml:space="preserve">
<tspan x="10" y="26">4 megabytes installed</tspan>
<tspan x="10" y="42"></tspan>
<tspan x="10" y="58">node_modules</tspan>
<tspan x="10" y="74">└─┬ gulp-usemin@0.3.28 </tspan>
<tspan x="10" y="90">  ├─┬ glob@7.1.1 </tspan>
<tspan x="10" y="106">  │ ├── fs.realpath@1.0.0 </tspan>
<tspan x="10" y="122">  │ ├─┬ inflight@1.0.6 </tspan>
<tspan x="10" y="138">  │ │ └── wrappy@1.0.2 </tspan>
<tspan x="10" y="154">  │ ├── inherits@2.0.3 </tspan>
<tspan x="10" y="170">  │ ├─┬ minimatch@3.0.3 </tspan>
<tspan x="10" y="186">  │ │ └─┬ brace-expansion@1.1.7 </tspan>
<tspan x="10" y="202">  │ │   ├── balanced-match@0.4.2 </tspan>
<tspan x="10" y="218">  │ │   └── concat-map@0.0.1 </tspan>
<tspan x="10" y="234">  │ ├── once@1.4.0 </tspan>
<tspan x="10" y="250">  │ └── path-is-absolute@1.0.1 </tspan>
<tspan x="10" y="266">  ├─┬ gulp-concat@2.6.1 </tspan>
<tspan x="10" y="282">  │ ├─┬ concat-with-sourcemaps@1.0.4 </tspan>
<tspan x="10" y="298">  │ │ └── source-map@0.5.6 </tspan>
<tspan x="10" y="314">  │ └─┬ vinyl@2.0.1 </tspan>
<tspan x="10" y="330">  │   ├── clone@1.0.2 </tspan>
<tspan x="10" y="346">  │   ├── clone-buffer@1.0.0 </tspan>
<tspan x="10" y="362">  │   ├── clone-stats@1.0.0 </tspan>
<tspan x="10" y="378">  │   ├── cloneable-readable@1.0.0 </tspan>
<tspan x="10" y="394">  │   ├── is-stream@1.1.0 </tspan>
<tspan x="10" y="410">  │   ├── remove-trailing-separator@1.0.1 </tspan>
<tspan x="10" y="426">  │   └── replace-ext@1.0.0 </tspan>
<tspan x="10" y="442">  ├─┬ gulp-util@3.0.8 </tspan>
<tspan x="10" y="458">  │ ├── array-differ@1.0.0 </tspan>
<tspan x="10" y="474">  │ ├── array-uniq@1.0.3 </tspan>
<tspan x="10" y="490">  │ ├── beeper@1.1.1 </tspan>
<tspan x="10" y="506">  │ ├─┬ chalk@1.1.3 </tspan>
<tspan x="10" y="522">  │ │ ├── ansi-styles@2.2.1 </tspan>
<tspan x="10" y="538">  │ │ ├── escape-string-regexp@1.0.5 </tspan>
<tspan x="10" y="554">  │ │ ├─┬ has-ansi@2.0.0 </tspan>
<tspan x="10" y="570">  │ │ │ └── ansi-regex@2.1.1 </tspan>
<tspan x="10" y="586">  │ │ ├── strip-ansi@3.0.1 </tspan>
<tspan x="10" y="602">  │ │ └── supports-color@2.0.0 </tspan>
<tspan x="10" y="618">  │ ├── dateformat@2.0.0 </tspan>
<tspan x="10" y="634">  │ ├─┬ fancy-log@1.3.0 </tspan>
<tspan x="10" y="650">  │ │ └── time-stamp@1.0.1 </tspan>
<tspan x="10" y="666">  │ ├─┬ gulplog@1.0.0 </tspan>
<tspan x="10" y="682">  │ │ └── glogg@1.0.0 </tspan>
<tspan x="10" y="698">  │ ├─┬ has-gulplog@0.1.0 </tspan>
<tspan x="10" y="714">  │ │ └── sparkles@1.0.0 </tspan>
<tspan x="10" y="730">  │ ├── lodash._reescape@3.0.0 </tspan>
<tspan x="10" y="746">  │ ├── lodash._reevaluate@3.0.0 </tspan>
<tspan x="10" y="762">  │ ├── lodash._reinterpolate@3.0.0 </tspan>
<tspan x="10" y="778">  │ ├─┬ lodash.template@3.6.2 </tspan>
<tspan x="10" y="794">  │ │ ├── lodash._basecopy@3.0.1 </tspan>
<tspan x="10" y="810">  │ │ ├── lodash._basetostring@3.0.1 </tspan>
<tspan x="10" y="826">  │ │ ├── lodash._basevalues@3.0.0 </tspan>
<tspan x="10" y="842">  │ │ ├── lodash._isiterateecall@3.0.9 </tspan>
<tspan x="10" y="858">  │ │ ├─┬ lodash.escape@3.2.0 </tspan>
<tspan x="10" y="874">  │ │ │ └── lodash._root@3.0.1 </tspan>
<tspan x="10" y="890">  │ │ ├─┬ lodash.keys@3.1.2 </tspan>
<tspan x="10" y="906">  │ │ │ ├── lodash._getnative@3.9.1 </tspan>
<tspan x="10" y="922">  │ │ │ ├── lodash.isarguments@3.1.0 </tspan>
<tspan x="10" y="938">  │ │ │ └── lodash.isarray@3.0.4 </tspan>
<tspan x="10" y="954">  │ │ ├── lodash.restparam@3.6.1 </tspan>
<tspan x="10" y="970">  │ │ └── lodash.templatesettings@3.1.1 </tspan>
<tspan x="10" y="986">  │ ├── minimist@1.2.0 </tspan>
<tspan x="10" y="1002">  │ ├─┬ multipipe@0.1.2 </tspan>
<tspan x="10" y="1018">  │ │ └─┬ duplexer2@0.0.2 </tspan>
<tspan x="10" y="1034">  │ │   └─┬ readable-stream@1.1.14 </tspan>
<tspan x="10" y="1050">  │ │     ├── isarray@0.0.1 </tspan>
<tspan x="10" y="1066">  │ │     └── string_decoder@0.10.31 </tspan>
<tspan x="10" y="1082">  │ ├── object-assign@3.0.0 </tspan>
<tspan x="10" y="1098">  │ ├── replace-ext@0.0.1 </tspan>
<tspan x="10" y="1114">  │ └─┬ vinyl@0.5.3 </tspan>
<tspan x="10" y="1130">  │   └── clone-stats@0.0.1 </tspan>
<tspan x="10" y="1146">  └─┬ through2@2.0.3 </tspan>
<tspan x="10" y="1162">    ├─┬ readable-stream@2.2.9 </tspan>
<tspan x="10" y="1178">    │ ├── buffer-shims@1.0.0 </tspan>
<tspan x="10" y="1194">    │ ├── core-util-is@1.0.2 </tspan>
<tspan x="10" y="1210">    │ ├── isarray@1.0.0 </tspan>
<tspan x="10" y="1226">    │ ├── process-nextick-args@1.0.7 </tspan>
<tspan x="10" y="1242">    │ ├── string_decoder@1.0.0 </tspan>
<tspan x="10" y="1258">    │ └── util-deprecate@1.0.2 </tspan>
<tspan x="10" y="1274">    └── xtend@4.0.1</tspan>
</text>
</svg>
